<mxfile host="Electron" modified="2024-04-30T06:12:37.987Z" agent="Mozilla/5.0 (Macintosh; Intel Mac OS X 10_15_7) AppleWebKit/537.36 (KHTML, like Gecko) draw.io/22.1.16 Chrome/120.0.6099.109 Electron/28.1.0 Safari/537.36" etag="uYWQGZxaHqOjqrLtTNQ2" version="22.1.16" type="device">
  <diagram name="페이지-1" id="_82sqeF7LbinzmPvh0fg">
    <mxGraphModel dx="1194" dy="763" grid="1" gridSize="10" guides="1" tooltips="1" connect="1" arrows="1" fold="1" page="1" pageScale="1" pageWidth="827" pageHeight="1169" math="0" shadow="0">
      <root>
        <mxCell id="0" />
        <mxCell id="1" parent="0" />
        <mxCell id="fgzMjFwFMSogiWtR6dp7-2" value="Presentation" style="swimlane;whiteSpace=wrap;html=1;fillColor=#99FFFF;" parent="1" vertex="1">
          <mxGeometry x="81" y="120" width="200" height="200" as="geometry" />
        </mxCell>
        <mxCell id="fgzMjFwFMSogiWtR6dp7-16" value="func" style="rounded=0;whiteSpace=wrap;html=1;" parent="fgzMjFwFMSogiWtR6dp7-2" vertex="1">
          <mxGeometry x="39.5" y="40" width="120" height="40" as="geometry" />
        </mxCell>
        <mxCell id="fgzMjFwFMSogiWtR6dp7-20" value="handling" style="rounded=0;whiteSpace=wrap;html=1;" parent="fgzMjFwFMSogiWtR6dp7-2" vertex="1">
          <mxGeometry x="40" y="120" width="120" height="40" as="geometry" />
        </mxCell>
        <mxCell id="fgzMjFwFMSogiWtR6dp7-3" value="Domain" style="swimlane;whiteSpace=wrap;html=1;fillColor=#FF9999;" parent="1" vertex="1">
          <mxGeometry x="401" y="120" width="200" height="200" as="geometry" />
        </mxCell>
        <mxCell id="fgzMjFwFMSogiWtR6dp7-14" value="func" style="rounded=0;whiteSpace=wrap;html=1;" parent="fgzMjFwFMSogiWtR6dp7-3" vertex="1">
          <mxGeometry x="40" y="40" width="120" height="40" as="geometry" />
        </mxCell>
        <mxCell id="fgzMjFwFMSogiWtR6dp7-18" value="handling" style="rounded=0;whiteSpace=wrap;html=1;" parent="fgzMjFwFMSogiWtR6dp7-3" vertex="1">
          <mxGeometry x="40" y="120" width="120" height="40" as="geometry" />
        </mxCell>
        <mxCell id="fgzMjFwFMSogiWtR6dp7-4" value="Data" style="swimlane;whiteSpace=wrap;html=1;fillColor=#FFFF99;" parent="1" vertex="1">
          <mxGeometry x="721" y="120" width="200" height="200" as="geometry" />
        </mxCell>
        <mxCell id="fgzMjFwFMSogiWtR6dp7-8" value="func" style="rounded=0;whiteSpace=wrap;html=1;" parent="fgzMjFwFMSogiWtR6dp7-4" vertex="1">
          <mxGeometry x="40" y="40" width="120" height="40" as="geometry" />
        </mxCell>
        <mxCell id="fgzMjFwFMSogiWtR6dp7-12" value="handling" style="rounded=0;whiteSpace=wrap;html=1;" parent="fgzMjFwFMSogiWtR6dp7-4" vertex="1">
          <mxGeometry x="40" y="120" width="120" height="40" as="geometry" />
        </mxCell>
        <mxCell id="fgzMjFwFMSogiWtR6dp7-5" value="Service" style="swimlane;whiteSpace=wrap;html=1;fillColor=#CCFF99;" parent="1" vertex="1">
          <mxGeometry x="1041" y="120" width="200" height="200" as="geometry" />
        </mxCell>
        <mxCell id="fgzMjFwFMSogiWtR6dp7-11" style="edgeStyle=orthogonalEdgeStyle;rounded=0;orthogonalLoop=1;jettySize=auto;html=1;entryX=0.5;entryY=0;entryDx=0;entryDy=0;" parent="fgzMjFwFMSogiWtR6dp7-5" source="fgzMjFwFMSogiWtR6dp7-7" target="fgzMjFwFMSogiWtR6dp7-10" edge="1">
          <mxGeometry relative="1" as="geometry" />
        </mxCell>
        <mxCell id="fgzMjFwFMSogiWtR6dp7-7" value="request" style="rounded=0;whiteSpace=wrap;html=1;" parent="fgzMjFwFMSogiWtR6dp7-5" vertex="1">
          <mxGeometry x="40" y="40" width="120" height="40" as="geometry" />
        </mxCell>
        <mxCell id="fgzMjFwFMSogiWtR6dp7-10" value="error" style="rounded=0;whiteSpace=wrap;html=1;" parent="fgzMjFwFMSogiWtR6dp7-5" vertex="1">
          <mxGeometry x="40" y="120" width="120" height="40" as="geometry" />
        </mxCell>
        <mxCell id="fgzMjFwFMSogiWtR6dp7-6" value="에러는 도메인에 존재한다." style="text;html=1;strokeColor=none;fillColor=#FFCCFF;align=center;verticalAlign=middle;whiteSpace=wrap;rounded=0;" parent="1" vertex="1">
          <mxGeometry x="81" y="40" width="199" height="40" as="geometry" />
        </mxCell>
        <mxCell id="fgzMjFwFMSogiWtR6dp7-13" style="edgeStyle=orthogonalEdgeStyle;rounded=0;orthogonalLoop=1;jettySize=auto;html=1;entryX=1;entryY=0.5;entryDx=0;entryDy=0;" parent="1" source="fgzMjFwFMSogiWtR6dp7-10" target="fgzMjFwFMSogiWtR6dp7-12" edge="1">
          <mxGeometry relative="1" as="geometry" />
        </mxCell>
        <mxCell id="fgzMjFwFMSogiWtR6dp7-19" style="edgeStyle=orthogonalEdgeStyle;rounded=0;orthogonalLoop=1;jettySize=auto;html=1;" parent="1" source="fgzMjFwFMSogiWtR6dp7-12" target="fgzMjFwFMSogiWtR6dp7-18" edge="1">
          <mxGeometry relative="1" as="geometry" />
        </mxCell>
        <mxCell id="fgzMjFwFMSogiWtR6dp7-21" style="edgeStyle=orthogonalEdgeStyle;rounded=0;orthogonalLoop=1;jettySize=auto;html=1;entryX=1;entryY=0.5;entryDx=0;entryDy=0;" parent="1" source="fgzMjFwFMSogiWtR6dp7-18" target="fgzMjFwFMSogiWtR6dp7-20" edge="1">
          <mxGeometry relative="1" as="geometry" />
        </mxCell>
        <mxCell id="fgzMjFwFMSogiWtR6dp7-22" value="UI Update&lt;br&gt;(팝업, 알트)" style="rounded=0;whiteSpace=wrap;html=1;" parent="1" vertex="1">
          <mxGeometry x="121" y="360" width="120" height="40" as="geometry" />
        </mxCell>
        <mxCell id="fgzMjFwFMSogiWtR6dp7-23" style="edgeStyle=orthogonalEdgeStyle;rounded=0;orthogonalLoop=1;jettySize=auto;html=1;entryX=0.5;entryY=0;entryDx=0;entryDy=0;" parent="1" source="fgzMjFwFMSogiWtR6dp7-20" target="fgzMjFwFMSogiWtR6dp7-22" edge="1">
          <mxGeometry relative="1" as="geometry" />
        </mxCell>
        <mxCell id="fgzMjFwFMSogiWtR6dp7-24" value="&amp;lt;I&amp;gt;" style="rounded=1;whiteSpace=wrap;html=1;fillColor=#FF9999;" parent="1" vertex="1">
          <mxGeometry x="320" y="160" width="40" height="40" as="geometry" />
        </mxCell>
        <mxCell id="fgzMjFwFMSogiWtR6dp7-25" style="edgeStyle=orthogonalEdgeStyle;rounded=0;orthogonalLoop=1;jettySize=auto;html=1;entryX=0;entryY=0.5;entryDx=0;entryDy=0;" parent="1" source="fgzMjFwFMSogiWtR6dp7-16" target="fgzMjFwFMSogiWtR6dp7-24" edge="1">
          <mxGeometry relative="1" as="geometry" />
        </mxCell>
        <mxCell id="fgzMjFwFMSogiWtR6dp7-26" style="edgeStyle=orthogonalEdgeStyle;rounded=0;orthogonalLoop=1;jettySize=auto;html=1;entryX=1;entryY=0.5;entryDx=0;entryDy=0;" parent="1" source="fgzMjFwFMSogiWtR6dp7-14" target="fgzMjFwFMSogiWtR6dp7-24" edge="1">
          <mxGeometry relative="1" as="geometry" />
        </mxCell>
        <mxCell id="fgzMjFwFMSogiWtR6dp7-27" value="&amp;lt;I&amp;gt;" style="rounded=1;whiteSpace=wrap;html=1;fillColor=#FF9999;" parent="1" vertex="1">
          <mxGeometry x="640" y="160" width="40" height="40" as="geometry" />
        </mxCell>
        <mxCell id="fgzMjFwFMSogiWtR6dp7-28" style="edgeStyle=orthogonalEdgeStyle;rounded=0;orthogonalLoop=1;jettySize=auto;html=1;entryX=0;entryY=0.5;entryDx=0;entryDy=0;" parent="1" source="fgzMjFwFMSogiWtR6dp7-14" target="fgzMjFwFMSogiWtR6dp7-27" edge="1">
          <mxGeometry relative="1" as="geometry" />
        </mxCell>
        <mxCell id="fgzMjFwFMSogiWtR6dp7-29" style="edgeStyle=orthogonalEdgeStyle;rounded=0;orthogonalLoop=1;jettySize=auto;html=1;entryX=1;entryY=0.5;entryDx=0;entryDy=0;" parent="1" source="fgzMjFwFMSogiWtR6dp7-8" target="fgzMjFwFMSogiWtR6dp7-27" edge="1">
          <mxGeometry relative="1" as="geometry" />
        </mxCell>
        <mxCell id="fgzMjFwFMSogiWtR6dp7-30" value="&amp;lt;I&amp;gt;" style="rounded=1;whiteSpace=wrap;html=1;fillColor=#CCFF99;" parent="1" vertex="1">
          <mxGeometry x="960" y="160" width="40" height="40" as="geometry" />
        </mxCell>
        <mxCell id="fgzMjFwFMSogiWtR6dp7-31" style="edgeStyle=orthogonalEdgeStyle;rounded=0;orthogonalLoop=1;jettySize=auto;html=1;entryX=0;entryY=0.5;entryDx=0;entryDy=0;" parent="1" source="fgzMjFwFMSogiWtR6dp7-8" target="fgzMjFwFMSogiWtR6dp7-30" edge="1">
          <mxGeometry relative="1" as="geometry" />
        </mxCell>
        <mxCell id="fgzMjFwFMSogiWtR6dp7-32" style="edgeStyle=orthogonalEdgeStyle;rounded=0;orthogonalLoop=1;jettySize=auto;html=1;entryX=1;entryY=0.5;entryDx=0;entryDy=0;" parent="1" source="fgzMjFwFMSogiWtR6dp7-7" target="fgzMjFwFMSogiWtR6dp7-30" edge="1">
          <mxGeometry relative="1" as="geometry" />
        </mxCell>
        <mxCell id="fgzMjFwFMSogiWtR6dp7-33" value="비디오 코드 저장" style="swimlane;whiteSpace=wrap;html=1;" parent="1" vertex="1">
          <mxGeometry x="80" y="440" width="1480" height="840" as="geometry" />
        </mxCell>
        <mxCell id="fgzMjFwFMSogiWtR6dp7-34" value="UrlValidationUseCase" style="rounded=0;whiteSpace=wrap;html=1;fillColor=#FF9999;" parent="fgzMjFwFMSogiWtR6dp7-33" vertex="1">
          <mxGeometry x="300" y="80" width="240" height="40" as="geometry" />
        </mxCell>
        <mxCell id="fgzMjFwFMSogiWtR6dp7-35" value="SaveVideoCodeUseCase" style="rounded=0;whiteSpace=wrap;html=1;fillColor=#FF9999;" parent="fgzMjFwFMSogiWtR6dp7-33" vertex="1">
          <mxGeometry x="300" y="560" width="240" height="40" as="geometry" />
        </mxCell>
        <mxCell id="fgzMjFwFMSogiWtR6dp7-36" value="ConvertUrlToVideoCodeUseCase" style="rounded=0;whiteSpace=wrap;html=1;fillColor=#FF9999;" parent="fgzMjFwFMSogiWtR6dp7-33" vertex="1">
          <mxGeometry x="300" y="200" width="240" height="40" as="geometry" />
        </mxCell>
        <mxCell id="fgzMjFwFMSogiWtR6dp7-37" value="SaveVideoCodeRepository" style="rounded=0;whiteSpace=wrap;html=1;fillColor=#FFFF99;" parent="fgzMjFwFMSogiWtR6dp7-33" vertex="1">
          <mxGeometry x="640" y="560" width="200" height="40" as="geometry" />
        </mxCell>
        <mxCell id="fgzMjFwFMSogiWtR6dp7-38" style="edgeStyle=orthogonalEdgeStyle;rounded=0;orthogonalLoop=1;jettySize=auto;html=1;entryX=0;entryY=0.5;entryDx=0;entryDy=0;" parent="fgzMjFwFMSogiWtR6dp7-33" source="fgzMjFwFMSogiWtR6dp7-35" target="fgzMjFwFMSogiWtR6dp7-37" edge="1">
          <mxGeometry relative="1" as="geometry" />
        </mxCell>
        <mxCell id="fgzMjFwFMSogiWtR6dp7-39" value="ConvertUrlRepository" style="rounded=0;whiteSpace=wrap;html=1;fillColor=#FFFF99;" parent="fgzMjFwFMSogiWtR6dp7-33" vertex="1">
          <mxGeometry x="640" y="200" width="200" height="40" as="geometry" />
        </mxCell>
        <mxCell id="fgzMjFwFMSogiWtR6dp7-40" style="edgeStyle=orthogonalEdgeStyle;rounded=0;orthogonalLoop=1;jettySize=auto;html=1;entryX=0;entryY=0.5;entryDx=0;entryDy=0;" parent="fgzMjFwFMSogiWtR6dp7-33" source="fgzMjFwFMSogiWtR6dp7-36" target="fgzMjFwFMSogiWtR6dp7-39" edge="1">
          <mxGeometry relative="1" as="geometry" />
        </mxCell>
        <mxCell id="fgzMjFwFMSogiWtR6dp7-41" value="CoreDataStorage" style="rounded=0;whiteSpace=wrap;html=1;fillColor=#CCFF99;" parent="fgzMjFwFMSogiWtR6dp7-33" vertex="1">
          <mxGeometry x="960" y="560" width="200" height="40" as="geometry" />
        </mxCell>
        <mxCell id="fgzMjFwFMSogiWtR6dp7-42" value="" style="edgeStyle=orthogonalEdgeStyle;rounded=0;orthogonalLoop=1;jettySize=auto;html=1;" parent="fgzMjFwFMSogiWtR6dp7-33" source="fgzMjFwFMSogiWtR6dp7-37" target="fgzMjFwFMSogiWtR6dp7-41" edge="1">
          <mxGeometry relative="1" as="geometry" />
        </mxCell>
        <mxCell id="fgzMjFwFMSogiWtR6dp7-93" value="" style="edgeStyle=orthogonalEdgeStyle;rounded=0;orthogonalLoop=1;jettySize=auto;html=1;" parent="fgzMjFwFMSogiWtR6dp7-33" source="fgzMjFwFMSogiWtR6dp7-43" target="fgzMjFwFMSogiWtR6dp7-92" edge="1">
          <mxGeometry relative="1" as="geometry" />
        </mxCell>
        <mxCell id="fgzMjFwFMSogiWtR6dp7-43" value="DataTransferService" style="rounded=0;whiteSpace=wrap;html=1;fillColor=#CCFF99;" parent="fgzMjFwFMSogiWtR6dp7-33" vertex="1">
          <mxGeometry x="960" y="200" width="200" height="40" as="geometry" />
        </mxCell>
        <mxCell id="fgzMjFwFMSogiWtR6dp7-44" style="edgeStyle=orthogonalEdgeStyle;rounded=0;orthogonalLoop=1;jettySize=auto;html=1;entryX=0;entryY=0.5;entryDx=0;entryDy=0;" parent="fgzMjFwFMSogiWtR6dp7-33" source="fgzMjFwFMSogiWtR6dp7-39" target="fgzMjFwFMSogiWtR6dp7-43" edge="1">
          <mxGeometry relative="1" as="geometry" />
        </mxCell>
        <mxCell id="fgzMjFwFMSogiWtR6dp7-82" style="edgeStyle=orthogonalEdgeStyle;rounded=0;orthogonalLoop=1;jettySize=auto;html=1;entryX=0;entryY=0.5;entryDx=0;entryDy=0;" parent="fgzMjFwFMSogiWtR6dp7-33" source="fgzMjFwFMSogiWtR6dp7-48" target="fgzMjFwFMSogiWtR6dp7-34" edge="1">
          <mxGeometry relative="1" as="geometry" />
        </mxCell>
        <mxCell id="fgzMjFwFMSogiWtR6dp7-48" value="ViewModel" style="rounded=0;whiteSpace=wrap;html=1;fillColor=#66FFFF;" parent="fgzMjFwFMSogiWtR6dp7-33" vertex="1">
          <mxGeometry x="40" y="80" width="120" height="40" as="geometry" />
        </mxCell>
        <mxCell id="fgzMjFwFMSogiWtR6dp7-50" value="검증 실패&lt;br&gt;(Bool로 처리)" style="rounded=0;whiteSpace=wrap;html=1;fillColor=#FF9933;" parent="fgzMjFwFMSogiWtR6dp7-33" vertex="1">
          <mxGeometry x="360" y="130" width="120" height="40" as="geometry" />
        </mxCell>
        <mxCell id="fgzMjFwFMSogiWtR6dp7-59" style="rounded=0;orthogonalLoop=1;jettySize=auto;html=1;entryX=1;entryY=0.5;entryDx=0;entryDy=0;exitX=0;exitY=0.5;exitDx=0;exitDy=0;" parent="fgzMjFwFMSogiWtR6dp7-33" source="fgzMjFwFMSogiWtR6dp7-52" target="fgzMjFwFMSogiWtR6dp7-57" edge="1">
          <mxGeometry relative="1" as="geometry" />
        </mxCell>
        <mxCell id="fgzMjFwFMSogiWtR6dp7-52" value="응답 없음" style="rounded=0;whiteSpace=wrap;html=1;fillColor=#FF9933;" parent="fgzMjFwFMSogiWtR6dp7-33" vertex="1">
          <mxGeometry x="1000" y="250" width="120" height="40" as="geometry" />
        </mxCell>
        <mxCell id="fgzMjFwFMSogiWtR6dp7-60" style="rounded=0;orthogonalLoop=1;jettySize=auto;html=1;entryX=1;entryY=0.75;entryDx=0;entryDy=0;exitX=0;exitY=0.5;exitDx=0;exitDy=0;" parent="fgzMjFwFMSogiWtR6dp7-33" source="fgzMjFwFMSogiWtR6dp7-53" target="fgzMjFwFMSogiWtR6dp7-57" edge="1">
          <mxGeometry relative="1" as="geometry" />
        </mxCell>
        <mxCell id="fgzMjFwFMSogiWtR6dp7-53" value="네트워크 오류" style="rounded=0;whiteSpace=wrap;html=1;fillColor=#FF9933;" parent="fgzMjFwFMSogiWtR6dp7-33" vertex="1">
          <mxGeometry x="1000" y="300" width="120" height="40" as="geometry" />
        </mxCell>
        <mxCell id="fgzMjFwFMSogiWtR6dp7-55" value="네트워크 연결 오류" style="rounded=0;whiteSpace=wrap;html=1;fillColor=#FF9933;" parent="fgzMjFwFMSogiWtR6dp7-33" vertex="1">
          <mxGeometry x="360" y="250" width="120" height="40" as="geometry" />
        </mxCell>
        <mxCell id="fgzMjFwFMSogiWtR6dp7-62" style="rounded=0;orthogonalLoop=1;jettySize=auto;html=1;entryX=1;entryY=0.5;entryDx=0;entryDy=0;exitX=0;exitY=0.5;exitDx=0;exitDy=0;" parent="fgzMjFwFMSogiWtR6dp7-33" source="fgzMjFwFMSogiWtR6dp7-56" target="fgzMjFwFMSogiWtR6dp7-61" edge="1">
          <mxGeometry relative="1" as="geometry" />
        </mxCell>
        <mxCell id="fgzMjFwFMSogiWtR6dp7-56" value="알수 없는 오류" style="rounded=0;whiteSpace=wrap;html=1;fillColor=#FF9933;" parent="fgzMjFwFMSogiWtR6dp7-33" vertex="1">
          <mxGeometry x="1000" y="400" width="120" height="40" as="geometry" />
        </mxCell>
        <mxCell id="fgzMjFwFMSogiWtR6dp7-65" style="edgeStyle=orthogonalEdgeStyle;rounded=0;orthogonalLoop=1;jettySize=auto;html=1;entryX=1;entryY=0.5;entryDx=0;entryDy=0;" parent="fgzMjFwFMSogiWtR6dp7-33" source="fgzMjFwFMSogiWtR6dp7-57" target="fgzMjFwFMSogiWtR6dp7-55" edge="1">
          <mxGeometry relative="1" as="geometry" />
        </mxCell>
        <mxCell id="fgzMjFwFMSogiWtR6dp7-57" value="네트워크 오류, 이유" style="rounded=0;whiteSpace=wrap;html=1;fillColor=#FF9933;" parent="fgzMjFwFMSogiWtR6dp7-33" vertex="1">
          <mxGeometry x="680" y="250" width="120" height="40" as="geometry" />
        </mxCell>
        <mxCell id="fgzMjFwFMSogiWtR6dp7-67" style="rounded=0;orthogonalLoop=1;jettySize=auto;html=1;entryX=1;entryY=0.5;entryDx=0;entryDy=0;" parent="fgzMjFwFMSogiWtR6dp7-33" source="fgzMjFwFMSogiWtR6dp7-61" target="fgzMjFwFMSogiWtR6dp7-66" edge="1">
          <mxGeometry relative="1" as="geometry" />
        </mxCell>
        <mxCell id="fgzMjFwFMSogiWtR6dp7-61" value="알수 없는 오류" style="rounded=0;whiteSpace=wrap;html=1;fillColor=#FF9933;" parent="fgzMjFwFMSogiWtR6dp7-33" vertex="1">
          <mxGeometry x="680" y="350" width="120" height="40" as="geometry" />
        </mxCell>
        <mxCell id="fgzMjFwFMSogiWtR6dp7-66" value="알수 없는 이유" style="rounded=0;whiteSpace=wrap;html=1;fillColor=#FF9933;" parent="fgzMjFwFMSogiWtR6dp7-33" vertex="1">
          <mxGeometry x="360" y="350" width="120" height="40" as="geometry" />
        </mxCell>
        <mxCell id="fgzMjFwFMSogiWtR6dp7-77" style="rounded=0;orthogonalLoop=1;jettySize=auto;html=1;entryX=1;entryY=0.5;entryDx=0;entryDy=0;exitX=0;exitY=0.5;exitDx=0;exitDy=0;" parent="fgzMjFwFMSogiWtR6dp7-33" source="fgzMjFwFMSogiWtR6dp7-68" target="fgzMjFwFMSogiWtR6dp7-73" edge="1">
          <mxGeometry relative="1" as="geometry" />
        </mxCell>
        <mxCell id="fgzMjFwFMSogiWtR6dp7-68" value="알수 없는 오류" style="rounded=0;whiteSpace=wrap;html=1;fillColor=#FF9933;" parent="fgzMjFwFMSogiWtR6dp7-33" vertex="1">
          <mxGeometry x="1000" y="760" width="120" height="40" as="geometry" />
        </mxCell>
        <mxCell id="fgzMjFwFMSogiWtR6dp7-74" style="rounded=0;orthogonalLoop=1;jettySize=auto;html=1;entryX=1;entryY=0.25;entryDx=0;entryDy=0;" parent="fgzMjFwFMSogiWtR6dp7-33" source="fgzMjFwFMSogiWtR6dp7-69" target="fgzMjFwFMSogiWtR6dp7-72" edge="1">
          <mxGeometry relative="1" as="geometry" />
        </mxCell>
        <mxCell id="fgzMjFwFMSogiWtR6dp7-69" value="저장 실패 오류" style="rounded=0;whiteSpace=wrap;html=1;fillColor=#FF9933;" parent="fgzMjFwFMSogiWtR6dp7-33" vertex="1">
          <mxGeometry x="1000" y="610" width="120" height="40" as="geometry" />
        </mxCell>
        <mxCell id="fgzMjFwFMSogiWtR6dp7-75" style="rounded=0;orthogonalLoop=1;jettySize=auto;html=1;entryX=1;entryY=0.5;entryDx=0;entryDy=0;exitX=0;exitY=0.5;exitDx=0;exitDy=0;" parent="fgzMjFwFMSogiWtR6dp7-33" source="fgzMjFwFMSogiWtR6dp7-70" target="fgzMjFwFMSogiWtR6dp7-72" edge="1">
          <mxGeometry relative="1" as="geometry" />
        </mxCell>
        <mxCell id="fgzMjFwFMSogiWtR6dp7-70" value="읽기 실패 오류" style="rounded=0;whiteSpace=wrap;html=1;fillColor=#FF9933;" parent="fgzMjFwFMSogiWtR6dp7-33" vertex="1">
          <mxGeometry x="1000" y="660" width="120" height="40" as="geometry" />
        </mxCell>
        <mxCell id="fgzMjFwFMSogiWtR6dp7-76" style="rounded=0;orthogonalLoop=1;jettySize=auto;html=1;entryX=1;entryY=0.75;entryDx=0;entryDy=0;exitX=0;exitY=0.5;exitDx=0;exitDy=0;" parent="fgzMjFwFMSogiWtR6dp7-33" source="fgzMjFwFMSogiWtR6dp7-71" target="fgzMjFwFMSogiWtR6dp7-72" edge="1">
          <mxGeometry relative="1" as="geometry" />
        </mxCell>
        <mxCell id="fgzMjFwFMSogiWtR6dp7-71" value="삭제실패 오류" style="rounded=0;whiteSpace=wrap;html=1;fillColor=#FF9933;" parent="fgzMjFwFMSogiWtR6dp7-33" vertex="1">
          <mxGeometry x="1000" y="710" width="120" height="40" as="geometry" />
        </mxCell>
        <mxCell id="fgzMjFwFMSogiWtR6dp7-80" style="edgeStyle=orthogonalEdgeStyle;rounded=0;orthogonalLoop=1;jettySize=auto;html=1;entryX=1;entryY=0.5;entryDx=0;entryDy=0;" parent="fgzMjFwFMSogiWtR6dp7-33" source="fgzMjFwFMSogiWtR6dp7-72" target="fgzMjFwFMSogiWtR6dp7-78" edge="1">
          <mxGeometry relative="1" as="geometry" />
        </mxCell>
        <mxCell id="fgzMjFwFMSogiWtR6dp7-72" value="저장소 오류, 세부사항" style="rounded=0;whiteSpace=wrap;html=1;fillColor=#FF9933;" parent="fgzMjFwFMSogiWtR6dp7-33" vertex="1">
          <mxGeometry x="680" y="610" width="120" height="40" as="geometry" />
        </mxCell>
        <mxCell id="fgzMjFwFMSogiWtR6dp7-81" style="edgeStyle=orthogonalEdgeStyle;rounded=0;orthogonalLoop=1;jettySize=auto;html=1;entryX=1;entryY=0.5;entryDx=0;entryDy=0;" parent="fgzMjFwFMSogiWtR6dp7-33" source="fgzMjFwFMSogiWtR6dp7-73" target="fgzMjFwFMSogiWtR6dp7-79" edge="1">
          <mxGeometry relative="1" as="geometry" />
        </mxCell>
        <mxCell id="fgzMjFwFMSogiWtR6dp7-73" value="알수 없는 오류" style="rounded=0;whiteSpace=wrap;html=1;fillColor=#FF9933;" parent="fgzMjFwFMSogiWtR6dp7-33" vertex="1">
          <mxGeometry x="680" y="660" width="120" height="40" as="geometry" />
        </mxCell>
        <mxCell id="fgzMjFwFMSogiWtR6dp7-78" value="저장소 오류" style="rounded=0;whiteSpace=wrap;html=1;fillColor=#FF9933;" parent="fgzMjFwFMSogiWtR6dp7-33" vertex="1">
          <mxGeometry x="360" y="610" width="120" height="40" as="geometry" />
        </mxCell>
        <mxCell id="fgzMjFwFMSogiWtR6dp7-79" value="알수 없는 오류" style="rounded=0;whiteSpace=wrap;html=1;fillColor=#FF9933;" parent="fgzMjFwFMSogiWtR6dp7-33" vertex="1">
          <mxGeometry x="360" y="660" width="120" height="40" as="geometry" />
        </mxCell>
        <mxCell id="fgzMjFwFMSogiWtR6dp7-83" value="저장 실패" style="rounded=0;whiteSpace=wrap;html=1;fillColor=#FF9933;" parent="fgzMjFwFMSogiWtR6dp7-33" vertex="1">
          <mxGeometry x="40" y="130" width="120" height="40" as="geometry" />
        </mxCell>
        <mxCell id="fgzMjFwFMSogiWtR6dp7-86" style="edgeStyle=orthogonalEdgeStyle;rounded=0;orthogonalLoop=1;jettySize=auto;html=1;entryX=0;entryY=0.5;entryDx=0;entryDy=0;" parent="fgzMjFwFMSogiWtR6dp7-33" source="fgzMjFwFMSogiWtR6dp7-84" target="fgzMjFwFMSogiWtR6dp7-36" edge="1">
          <mxGeometry relative="1" as="geometry" />
        </mxCell>
        <mxCell id="fgzMjFwFMSogiWtR6dp7-84" value="ViewModel" style="rounded=0;whiteSpace=wrap;html=1;fillColor=#66FFFF;" parent="fgzMjFwFMSogiWtR6dp7-33" vertex="1">
          <mxGeometry x="40" y="200" width="120" height="40" as="geometry" />
        </mxCell>
        <mxCell id="fgzMjFwFMSogiWtR6dp7-85" value="저장 실패" style="rounded=0;whiteSpace=wrap;html=1;fillColor=#FF9933;" parent="fgzMjFwFMSogiWtR6dp7-33" vertex="1">
          <mxGeometry x="40" y="250" width="120" height="40" as="geometry" />
        </mxCell>
        <mxCell id="fgzMjFwFMSogiWtR6dp7-89" style="edgeStyle=orthogonalEdgeStyle;rounded=0;orthogonalLoop=1;jettySize=auto;html=1;entryX=0;entryY=0.5;entryDx=0;entryDy=0;" parent="fgzMjFwFMSogiWtR6dp7-33" source="fgzMjFwFMSogiWtR6dp7-87" target="fgzMjFwFMSogiWtR6dp7-35" edge="1">
          <mxGeometry relative="1" as="geometry" />
        </mxCell>
        <mxCell id="fgzMjFwFMSogiWtR6dp7-87" value="ViewModel" style="rounded=0;whiteSpace=wrap;html=1;fillColor=#66FFFF;" parent="fgzMjFwFMSogiWtR6dp7-33" vertex="1">
          <mxGeometry x="40" y="560" width="120" height="40" as="geometry" />
        </mxCell>
        <mxCell id="fgzMjFwFMSogiWtR6dp7-88" value="저장 실패" style="rounded=0;whiteSpace=wrap;html=1;fillColor=#FF9933;" parent="fgzMjFwFMSogiWtR6dp7-33" vertex="1">
          <mxGeometry x="40" y="610" width="120" height="40" as="geometry" />
        </mxCell>
        <mxCell id="fgzMjFwFMSogiWtR6dp7-91" style="rounded=0;orthogonalLoop=1;jettySize=auto;html=1;entryX=1;entryY=0.5;entryDx=0;entryDy=0;exitX=0;exitY=0.5;exitDx=0;exitDy=0;" parent="fgzMjFwFMSogiWtR6dp7-33" source="fgzMjFwFMSogiWtR6dp7-90" target="fgzMjFwFMSogiWtR6dp7-94" edge="1">
          <mxGeometry relative="1" as="geometry" />
        </mxCell>
        <mxCell id="fgzMjFwFMSogiWtR6dp7-90" value="파싱 에러" style="rounded=0;whiteSpace=wrap;html=1;fillColor=#FF9933;" parent="fgzMjFwFMSogiWtR6dp7-33" vertex="1">
          <mxGeometry x="1000" y="350" width="120" height="40" as="geometry" />
        </mxCell>
        <mxCell id="fgzMjFwFMSogiWtR6dp7-92" value="NetworkService" style="rounded=0;whiteSpace=wrap;html=1;fillColor=#CCFF99;" parent="fgzMjFwFMSogiWtR6dp7-33" vertex="1">
          <mxGeometry x="1240" y="200" width="200" height="40" as="geometry" />
        </mxCell>
        <mxCell id="fgzMjFwFMSogiWtR6dp7-96" style="edgeStyle=orthogonalEdgeStyle;rounded=0;orthogonalLoop=1;jettySize=auto;html=1;entryX=1;entryY=0.5;entryDx=0;entryDy=0;" parent="fgzMjFwFMSogiWtR6dp7-33" source="fgzMjFwFMSogiWtR6dp7-94" target="fgzMjFwFMSogiWtR6dp7-95" edge="1">
          <mxGeometry relative="1" as="geometry" />
        </mxCell>
        <mxCell id="fgzMjFwFMSogiWtR6dp7-94" value="디코딩 오류" style="rounded=0;whiteSpace=wrap;html=1;fillColor=#FF9933;" parent="fgzMjFwFMSogiWtR6dp7-33" vertex="1">
          <mxGeometry x="680" y="300" width="120" height="40" as="geometry" />
        </mxCell>
        <mxCell id="fgzMjFwFMSogiWtR6dp7-95" value="디코딩 오류" style="rounded=0;whiteSpace=wrap;html=1;fillColor=#FF9933;" parent="fgzMjFwFMSogiWtR6dp7-33" vertex="1">
          <mxGeometry x="360" y="300" width="120" height="40" as="geometry" />
        </mxCell>
        <mxCell id="fgzMjFwFMSogiWtR6dp7-97" value="상태코드 오류" style="rounded=0;whiteSpace=wrap;html=1;fillColor=#FF9933;" parent="fgzMjFwFMSogiWtR6dp7-33" vertex="1">
          <mxGeometry x="1280" y="250" width="120" height="40" as="geometry" />
        </mxCell>
        <mxCell id="fgzMjFwFMSogiWtR6dp7-98" value="네트워크 연결 오류" style="rounded=0;whiteSpace=wrap;html=1;fillColor=#FF9933;" parent="fgzMjFwFMSogiWtR6dp7-33" vertex="1">
          <mxGeometry x="1280" y="300" width="120" height="40" as="geometry" />
        </mxCell>
        <mxCell id="fgzMjFwFMSogiWtR6dp7-99" value="연결 취소됨" style="rounded=0;whiteSpace=wrap;html=1;fillColor=#FF9933;" parent="fgzMjFwFMSogiWtR6dp7-33" vertex="1">
          <mxGeometry x="1280" y="350" width="120" height="40" as="geometry" />
        </mxCell>
        <mxCell id="fgzMjFwFMSogiWtR6dp7-100" value="url 생성 오류" style="rounded=0;whiteSpace=wrap;html=1;fillColor=#FF9933;" parent="fgzMjFwFMSogiWtR6dp7-33" vertex="1">
          <mxGeometry x="1280" y="400" width="120" height="40" as="geometry" />
        </mxCell>
        <mxCell id="fgzMjFwFMSogiWtR6dp7-101" value="generic 오류&lt;br&gt;(알 수 없는 오류)" style="rounded=0;whiteSpace=wrap;html=1;fillColor=#FF9933;" parent="fgzMjFwFMSogiWtR6dp7-33" vertex="1">
          <mxGeometry x="1280" y="450" width="120" height="40" as="geometry" />
        </mxCell>
      </root>
    </mxGraphModel>
  </diagram>
</mxfile>
